<svg width="172" height="172" viewBox="0 0 172 172" fill="none" xmlns="http://www.w3.org/2000/svg">
<g clip-path="url(#clip0_135_18)">
<path d="M172 0H0V172H172V0Z" fill="#AFCBE3"/>
<path d="M86.0054 150.587C122.719 150.587 152.481 120.825 152.481 84.1116C152.481 47.3981 122.719 17.636 86.0054 17.636C49.2919 17.636 19.5298 47.3981 19.5298 84.1116C19.5298 120.825 49.2919 150.587 86.0054 150.587Z" fill="#1D5C8B"/>
<path d="M98.2622 85.6931C108.396 85.6515 118.541 85.7763 128.675 85.6931C145.988 85.5578 150.15 85.2769 152.648 88.5232C153.501 89.6365 154.989 92.2376 150.088 111.83C147.081 123.837 145.583 129.84 143.46 132.129C139.454 136.458 134.294 137.446 105.733 138.008C81.8436 138.486 86.3176 137.779 71.7094 138.268C71.7094 138.268 58.5682 138.715 37.4155 137.758C26.605 137.269 23.6605 136.822 21.7564 134.356C17.3657 128.706 22.4744 117.667 28.9253 103.724C32.5877 95.8064 34.575 91.9047 37.686 89.2931C42.6491 85.1208 47.9138 85.2353 66.8088 85.4225C83.4979 85.589 91.8529 85.7035 98.2518 85.6827L98.2622 85.6931Z" fill="#5E99C5"/>
<path d="M96.5971 81.4272C106.731 81.3856 116.876 81.5104 127.01 81.4272C144.323 81.2919 148.485 81.011 150.982 84.2573C151.836 85.3706 153.324 87.9718 148.423 107.564C145.416 119.571 143.918 125.574 141.795 127.863C137.789 132.192 132.629 133.18 104.068 133.742C80.1785 134.221 84.6525 133.513 70.0443 134.002C70.0443 134.002 56.9032 134.45 35.7505 133.492C24.94 133.003 21.9955 132.556 20.0914 130.09C15.7006 124.44 20.8093 113.401 27.2602 99.4585C30.9227 91.5406 32.91 87.6388 36.021 85.0272C40.984 80.8549 46.2488 80.9694 65.1437 81.1567C81.8329 81.3232 90.1878 81.4376 96.5867 81.4168L96.5971 81.4272Z" fill="#F1F5F7"/>
<path d="M85.1728 115.721C94.7922 115.721 102.59 112.088 102.59 107.605C102.59 103.123 94.7922 99.4897 85.1728 99.4897C75.5534 99.4897 67.7554 103.123 67.7554 107.605C67.7554 112.088 75.5534 115.721 85.1728 115.721Z" fill="#AFCBE3"/>
<path d="M57.0281 47.1124C56.4351 40.6303 55.5715 31.214 62.0328 23.0047C70.2005 12.6417 83.4873 12.5376 84.9023 12.548C85.7971 12.548 99.5937 12.8914 108.105 23.9932C115.128 33.1597 113.848 43.5644 113.109 49.5783C112.381 55.4674 110.789 58.9634 104.598 71.7195C90.1671 101.467 88.6272 103.641 86.0676 103.693C84.5902 103.724 81.9994 103.069 66.538 72.2085C59.3692 57.9125 57.6108 53.4801 57.0281 47.1124Z" fill="#5E99C5"/>
<path d="M85.1729 63.3542C96.7863 63.3542 106.201 54.1027 106.201 42.6905C106.201 31.2782 96.7863 22.0267 85.1729 22.0267C73.5595 22.0267 64.145 31.2782 64.145 42.6905C64.145 54.1027 73.5595 63.3542 85.1729 63.3542Z" fill="#AFCBE3"/>
<path d="M85.1729 55.0097C92.0973 55.0097 97.7106 49.4942 97.7106 42.6905C97.7106 35.8868 92.0973 30.3713 85.1729 30.3713C78.2486 30.3713 72.6353 35.8868 72.6353 42.6905C72.6353 49.4942 78.2486 55.0097 85.1729 55.0097Z" fill="#5E99C5"/>
</g>
<defs>
<clipPath id="clip0_135_18">
<rect width="172" height="172" rx="30" fill="white"/>
</clipPath>
</defs>
</svg>
