<svg width="186" height="187" viewBox="0 0 186 187" fill="none" xmlns="http://www.w3.org/2000/svg">
<ellipse cx="93" cy="93.5" rx="93" ry="93.5" fill="#D9D9D9"/>
<mask id="mask0_102_5" style="mask-type:alpha" maskUnits="userSpaceOnUse" x="0" y="5" width="183" height="182">
<ellipse cx="91.0705" cy="96.309" rx="91.0705" ry="90.691" fill="#D9D9D9"/>
</mask>
<g mask="url(#mask0_102_5)">
<path d="M99.4457 86.7287C100.913 83.7545 105.154 83.7545 106.62 86.7287L158.671 192.266C159.982 194.924 158.048 198.035 155.084 198.035H50.9822C48.0182 198.035 46.0838 194.924 47.3948 192.266L99.4457 86.7287Z" fill="#C0B8B8"/>
<path d="M137.779 64.3707C140.425 59.4734 147.451 59.4734 150.097 64.3707L212.064 179.081C214.584 183.745 211.207 189.408 205.906 189.408H81.97C76.6691 189.408 73.2917 183.745 75.8112 179.081L137.779 64.3707Z" fill="#C0B8B8"/>
<path d="M31.245 62.2489C33.8742 57.2822 40.989 57.2822 43.6182 62.2488L100.502 169.702C102.97 174.364 99.59 179.977 94.3151 179.977H-19.4518C-24.7268 179.977 -28.1064 174.364 -25.6384 169.702L31.245 62.2489Z" fill="#C0B8B8"/>
</g>
</svg>
